<svg x="0" y="0" width="300" height="300" version="1.1" xmlns="http://www.w3.org/2000/svg" xmlns:xlink="http://www.w3.org/1999/xlink"><g transform="translate(216.80827,145.8159) scale(0.28748,0.28748)" data-paper-data="{&quot;description&quot;:&quot;Logo for Untitled Group\n=======================\n\nThis logo was generated by MarkMaker and is composed of elements designed by others.\n\nThe font is Vesper Libre Medium designed by Mota Italic and released under the OFL license via Google Fonts: https://www.google.com/fonts/specimen/Vesper Libre. The font includes this copyright statement: Copyright (c) 2007, Robert Keller (www.motaitalic.com)\n\nMarkMaker uses semantic data from the Princeton University WordNet database http://wordnet.princeton.edu and font descriptions from Google Fonts https://www.google.com/fonts.\n\nThis design is inspired by designs that past users of MarkMaker have liked. As a result, it may be visually similar to past or future designs generated by the system. There is no guarantee that it is unique, original, or suitable in any way for use as a logo.\n\n&quot;}" fill="none" stroke="none" stroke-width="none" stroke-linecap="butt" stroke-linejoin="miter" stroke-miterlimit="10" stroke-dasharray="" stroke-dashoffset="0" font-family="sans-serif" font-weight="normal" font-size="12" text-anchor="start" mix-blend-mode="normal"><path transform="translate(-73.96948,2.42571) scale(0.83333,0.83333)" d="M-691.00475,159.46733l0,-289.82615l494.37573,0l0,289.82615z" fill="#0d3813" stroke="none" stroke-width="0"></path><g data-paper-data="{&quot;elementType&quot;:&quot;logo&quot;}" fill="#0d3813" stroke-width="1"><g data-paper-data="{&quot;elementType&quot;:&quot;text&quot;}"><g transform="translate(-211.02639,-100)" data-paper-data="{&quot;baseline&quot;:71.875}"><g transform="translate(23.80334,0)" data-paper-data="{&quot;baselineProportion&quot;:0.9767750497677505,&quot;fontSize&quot;:100,&quot;baseline&quot;:71.875,&quot;elementType&quot;:&quot;word&quot;}"><path d="M23.04688,73.82813c0,3.8737 0.75684,7.33236 2.27051,10.37598c1.51367,3.04362 3.67025,5.42806 6.46973,7.15332c2.79948,1.72526 6.07096,2.58789 9.81445,2.58789c2.01823,0 3.85742,-0.29297 5.51758,-0.87891c1.66016,-0.58594 3.0599,-1.46484 4.19922,-2.63672c2.89714,-2.92969 4.3457,-7.50326 4.3457,-13.7207l0,-36.96289l-9.61914,-3.32031l0.83008,-4.00391l25.43945,0l-0.78125,4.15039l-7.4707,3.27148l0,36.03516c0,5.40365 -1.06608,10.03418 -3.19824,13.8916c-2.13216,3.85742 -5.2653,6.81152 -9.39941,8.8623c-4.13411,2.05078 -9.14714,3.07617 -15.03906,3.07617c-8.59375,0 -15.05534,-2.15658 -19.38477,-6.46973c-4.32943,-4.31315 -6.49414,-10.3597 -6.49414,-18.13965l0,-37.45117l-8.34961,-3.27148l0.83008,-3.95508l30.41992,0l-1.07422,4.98047l-9.32617,2.7832l0,33.64258z" data-paper-data="{&quot;elementType&quot;:&quot;letter&quot;,&quot;baseline&quot;:67.578125,&quot;baselineProportion&quot;:0.9753347427766033,&quot;fontSize&quot;:100}"></path><path transform="translate(-0.4,0)" d="M76.95313,58.20313l0.39063,-2.29492l15.33203,-3.02734l2.29492,7.91016c3.1901,-2.53906 6.42904,-4.56543 9.7168,-6.0791c3.28776,-1.51367 6.28255,-2.27051 8.98438,-2.27051c3.74349,0 6.90104,1.3265 9.47266,3.97949c2.57161,2.65299 3.85742,7.10449 3.85742,13.35449l0,23.82813l7.86133,2.7832l-0.78125,3.61328l-24.31641,0l0.78125,-3.85742l4.63867,-2.88086l0,-20.16602c0,-3.125 -0.34993,-5.68848 -1.0498,-7.69043c-0.69987,-2.00195 -1.53809,-3.40983 -2.51465,-4.22363c-0.55339,-0.42318 -1.17187,-0.63477 -1.85547,-0.63477c-1.52995,0 -3.80859,0.29297 -6.83594,0.87891c-3.02734,0.58594 -5.45247,1.20443 -7.27539,1.85547c0.03255,0.16276 0.08952,0.52897 0.1709,1.09863c0.08138,0.56966 0.12207,1.08236 0.12207,1.53809l0.04883,27.68555l7.42188,2.83203l-0.83008,3.56445l-25.92773,0l0.78125,-4.00391l6.68945,-2.88086l0,-30.81055l-7.17773,-4.10156z" data-paper-data="{&quot;elementType&quot;:&quot;letter&quot;,&quot;baseline&quot;:47.55859375,&quot;baselineProportion&quot;:1,&quot;fontSize&quot;:100}"></path><path transform="translate(-0.8,0)" d="M137.06055,53.61328l7.12891,0l1.5625,-10.40039l10.25391,-4.19922l0,14.59961l15.33203,0l-0.78125,4.24805l-14.55078,3.07617l0,21.14258c0,2.57161 0.33366,4.9235 1.00098,7.05566c0.66732,2.13216 1.61947,3.60514 2.85645,4.41895c0.55339,0.35807 1.31836,0.53711 2.29492,0.53711c1.66016,0 4.72005,-0.45573 9.17969,-1.36719c0.71615,-0.13021 1.07422,-0.19531 1.07422,-0.19531l0.83008,2.00195c-1.92057,1.69271 -4.29687,3.23079 -7.12891,4.61426c-2.83203,1.38346 -5.55013,2.0752 -8.1543,2.0752c-4.29687,0 -7.66602,-1.35091 -10.10742,-4.05273c-2.44141,-2.70182 -3.66211,-6.90104 -3.66211,-12.59766l0,-23.63281l-8.00781,-2.97852l0.87891,-4.3457z" data-paper-data="{&quot;elementType&quot;:&quot;letter&quot;,&quot;baseline&quot;:60.986328125,&quot;baselineProportion&quot;:0.9803767660910518,&quot;fontSize&quot;:100}"></path><path transform="translate(-1.2,0)" d="M183.05664,93.4082l0,-31.15234l-7.22656,-4.05273l0.43945,-2.29492l18.60352,-3.02734l0,40.72266l7.42188,2.83203l-0.78125,3.56445l-26.07422,0l0.73242,-3.90625l6.88477,-2.68555z M191.01563,44.48242c-0.09766,0.03255 -0.29297,0.04883 -0.58594,0.04883c-0.78125,0 -1.81478,-0.25228 -3.10059,-0.75684c-1.28581,-0.50456 -2.46582,-1.11491 -3.54004,-1.83105c-1.07422,-0.71615 -1.72526,-1.36719 -1.95312,-1.95312c-0.0651,-0.26042 -0.09766,-0.48828 -0.09766,-0.68359c0,-0.8138 0.26855,-1.87174 0.80566,-3.17383c0.53711,-1.30208 1.17188,-2.4821 1.9043,-3.54004c0.73242,-1.05794 1.37533,-1.68457 1.92871,-1.87988c0.26042,-0.0651 0.50456,-0.09766 0.73242,-0.09766c0.84635,0 1.9043,0.26855 3.17383,0.80566c1.26953,0.53711 2.42513,1.17188 3.4668,1.9043c1.04167,0.73242 1.66016,1.35905 1.85547,1.87988c0.0651,0.26042 0.09766,0.47201 0.09766,0.63477c0,0.8138 -0.26855,1.87174 -0.80566,3.17383c-0.53711,1.30208 -1.18001,2.49023 -1.92871,3.56445c-0.7487,1.07422 -1.39974,1.70898 -1.95312,1.9043" data-paper-data="{&quot;elementType&quot;:&quot;letter&quot;,&quot;baseline&quot;:69.384765625,&quot;baselineProportion&quot;:1,&quot;fontSize&quot;:100}"></path><path transform="translate(-1.6,0)" d="M205.41992,53.61328l7.12891,0l1.5625,-10.40039l10.25391,-4.19922l0,14.59961l15.33203,0l-0.78125,4.24805l-14.55078,3.07617l0,21.14258c0,2.57161 0.33366,4.9235 1.00098,7.05566c0.66732,2.13216 1.61947,3.60514 2.85645,4.41895c0.55339,0.35807 1.31836,0.53711 2.29492,0.53711c1.66016,0 4.72005,-0.45573 9.17969,-1.36719c0.71615,-0.13021 1.07422,-0.19531 1.07422,-0.19531l0.83008,2.00195c-1.92057,1.69271 -4.29687,3.23079 -7.12891,4.61426c-2.83203,1.38346 -5.55013,2.0752 -8.1543,2.0752c-4.29687,0 -7.66602,-1.35091 -10.10742,-4.05273c-2.44141,-2.70182 -3.66211,-6.90104 -3.66211,-12.59766l0,-23.63281l-8.00781,-2.97852l0.87891,-4.3457z" data-paper-data="{&quot;elementType&quot;:&quot;letter&quot;,&quot;baseline&quot;:60.986328125,&quot;baselineProportion&quot;:0.9803767660910518,&quot;fontSize&quot;:100}"></path><path transform="translate(-2,0)" d="M243.21289,33.34961l0.43945,-2.29492l18.60352,-2.92969l0,65.47852l7.61719,2.83203l-0.83008,3.56445l-25.97656,0l0.78125,-3.85742l6.5918,-2.73437l0,-55.95703l-7.22656,-4.10156z" data-paper-data="{&quot;elementType&quot;:&quot;letter&quot;,&quot;baseline&quot;:71.875,&quot;baselineProportion&quot;:1,&quot;fontSize&quot;:100}"></path><path transform="translate(-2.4,0)" d="M314.50195,75.29297c-0.22786,0.58594 -0.52897,1.01725 -0.90332,1.29395c-0.37435,0.27669 -0.9196,0.41504 -1.63574,0.41504l-25.87891,0c0.29297,2.86458 1.06608,5.56641 2.31934,8.10547c1.25326,2.53906 2.87272,4.58171 4.8584,6.12793c1.98568,1.54622 4.16667,2.31934 6.54297,2.31934c2.01823,0 4.48405,-0.3418 7.39746,-1.02539c2.91341,-0.68359 4.95605,-1.25326 6.12793,-1.70898l0.97656,1.66016c-1.20443,1.4974 -2.77507,2.91341 -4.71191,4.24805c-1.93685,1.33464 -4.09342,2.41699 -6.46973,3.24707c-2.3763,0.83008 -4.7526,1.24512 -7.12891,1.24512c-3.84115,0 -7.38118,-0.82194 -10.62012,-2.46582c-3.23893,-1.64388 -5.85124,-4.23177 -7.83691,-7.76367c-1.98568,-3.5319 -2.97852,-7.96712 -2.97852,-13.30566c0,-4.58984 0.9847,-8.81348 2.9541,-12.6709c1.9694,-3.85742 4.76074,-6.92546 8.37402,-9.2041c3.61328,-2.27865 7.76367,-3.41797 12.45117,-3.41797c3.54818,0 6.62435,0.71615 9.22852,2.14844c2.60417,1.43229 4.60612,3.37728 6.00586,5.83496c1.39974,2.45768 2.09961,5.2002 2.09961,8.22754c0,2.44141 -0.39062,4.67122 -1.17187,6.68945 M305.27344,71.14258c-0.13021,-2.66927 -0.73242,-4.93978 -1.80664,-6.81152c-1.07422,-1.87174 -2.49023,-3.28776 -4.24805,-4.24805c-1.75781,-0.96029 -3.67839,-1.44043 -5.76172,-1.44043c-2.01823,0 -3.36914,0.37435 -4.05273,1.12305c-0.84635,1.04167 -1.60319,2.70996 -2.27051,5.00488c-0.66732,2.29492 -1.0498,5.06999 -1.14746,8.3252l19.28711,-1.95312z" data-paper-data="{&quot;elementType&quot;:&quot;letter&quot;,&quot;baseline&quot;:47.607421875,&quot;baselineProportion&quot;:0.975,&quot;fontSize&quot;:100}"></path><path transform="translate(-2.8,0)" d="M366.55273,90.47852c0.71615,1.20443 1.96126,2.25423 3.73535,3.14941c1.77409,0.89518 3.361,1.47298 4.76074,1.7334l-0.63477,2.97852c-1.07422,0.52083 -2.97038,1.13118 -5.68848,1.83105c-2.7181,0.69987 -4.89095,1.0498 -6.51855,1.0498c-1.6276,-3.28776 -3.54818,-5.82682 -5.76172,-7.61719c-1.75781,2.27865 -3.94694,4.11784 -6.56738,5.51758c-2.62044,1.39974 -5.42806,2.09961 -8.42285,2.09961c-3.38542,0 -6.53483,-0.78125 -9.44824,-2.34375c-2.91341,-1.5625 -5.28971,-4.02832 -7.12891,-7.39746c-1.83919,-3.36914 -2.75879,-7.6416 -2.75879,-12.81738c0,-4.85026 0.90332,-9.27734 2.70996,-13.28125c1.80664,-4.00391 4.32943,-7.1696 7.56836,-9.49707c3.23893,-2.32747 6.92546,-3.49121 11.05957,-3.49121c1.98568,0 3.9388,0.35807 5.85938,1.07422c1.92057,0.71615 3.72721,1.75781 5.41992,3.125l0,-19.18945l-7.22656,-4.05273l0.43945,-2.24609l18.60352,-2.97852l0,62.35352 M341.06445,91.79688c1.30208,1.23698 2.55534,1.85547 3.75977,1.85547c1.5625,0 3.26335,-0.18717 5.10254,-0.56152c1.83919,-0.37435 3.44238,-0.85449 4.80957,-1.44043l0,-25.97656c-1.30208,-1.92057 -3.11686,-3.42611 -5.44434,-4.5166c-2.32747,-1.09049 -4.72819,-1.63574 -7.20215,-1.63574c-1.36719,0 -2.53092,0.15462 -3.49121,0.46387c-0.96029,0.30924 -1.70085,0.93587 -2.22168,1.87988c-1.6276,2.73438 -2.44141,6.73828 -2.44141,12.01172c0,3.9388 0.69173,7.47884 2.0752,10.62012c1.38346,3.14128 3.06803,5.57454 5.05371,7.2998z" data-paper-data="{&quot;elementType&quot;:&quot;letter&quot;,&quot;baseline&quot;:71.875,&quot;baselineProportion&quot;:0.9832999331997327,&quot;fontSize&quot;:100}"></path></g></g><g transform="translate(-162.23674,-22.20986)" data-paper-data="{&quot;baseline&quot;:69.287109375,&quot;elementType&quot;:&quot;row&quot;}"><g transform="translate(21.9967,0)" data-paper-data="{&quot;baselineProportion&quot;:0.749208025343189,&quot;fontSize&quot;:100,&quot;baseline&quot;:69.287109375,&quot;elementType&quot;:&quot;word&quot;}"><path d="M37.06055,71.5332l0.78125,-4.05273l31.64063,0l-0.73242,4.39453l-5.9082,3.4668l-0.04883,14.35547c-1.5625,2.3112 -3.64583,4.37826 -6.25,6.20117c-2.60417,1.82292 -5.55013,3.24707 -8.83789,4.27246c-3.28776,1.02539 -6.67318,1.53809 -10.15625,1.53809c-5.40365,0 -9.96908,-0.61035 -13.69629,-1.83105c-3.72721,-1.2207 -7.2998,-3.39355 -10.71777,-6.51855c-2.92969,-2.76693 -5.18392,-6.33138 -6.7627,-10.69336c-1.57878,-4.36198 -2.36816,-9.09831 -2.36816,-14.20898c0,-6.05469 1.05794,-11.80013 3.17383,-17.23633c2.11589,-5.4362 5.48503,-10.02604 10.10742,-13.76953c2.66927,-2.18099 5.85124,-3.84928 9.5459,-5.00488c3.69466,-1.1556 7.5765,-1.7334 11.64551,-1.7334c2.21354,0 4.50033,0.12207 6.86035,0.36621c2.36003,0.24414 4.53288,0.59408 6.51855,1.0498l6.98242,-0.68359l2.00195,18.06641l-5.51758,1.02539l-4.10156,-9.27734c-1.6276,-1.13932 -3.82487,-2.05078 -6.5918,-2.73437c-2.76693,-0.68359 -5.41992,-1.02539 -7.95898,-1.02539c-2.63672,0 -5.11882,0.26855 -7.44629,0.80566c-2.32747,0.53711 -4.01204,1.27767 -5.05371,2.22168c-2.14844,1.98568 -3.82487,5.08626 -5.0293,9.30176c-1.20443,4.21549 -1.80664,9.56217 -1.80664,16.04004c0,4.55729 0.61849,8.82975 1.85547,12.81738c1.23698,3.98763 3.07617,7.15332 5.51758,9.49707c2.24609,2.24609 4.61426,3.79232 7.10449,4.63867c2.49023,0.84635 5.15137,1.26953 7.9834,1.26953c1.79036,0 3.72721,-0.21159 5.81055,-0.63477c2.08333,-0.42318 3.67839,-1.02539 4.78516,-1.80664l0,-16.69922l-13.33008,-3.41797z" data-paper-data="{&quot;elementType&quot;:&quot;letter&quot;,&quot;baseline&quot;:69.287109375,&quot;baselineProportion&quot;:0.9759284731774416,&quot;fontSize&quot;:100}"></path><path transform="translate(-0.4,0)" d="M73.63281,58.25195l0.43945,-2.39258l15.2832,-2.73437l2.68555,8.98438c2.01823,-3.48307 3.98763,-5.94889 5.9082,-7.39746c1.92057,-1.44857 4.05273,-2.17285 6.39648,-2.17285c0.8138,0 1.70898,0.15462 2.68555,0.46387c0.97656,0.30924 1.9043,0.72428 2.7832,1.24512c1.00911,0.61849 1.83105,1.3265 2.46582,2.12402c0.63477,0.79753 0.95215,1.61947 0.95215,2.46582c0,0.94401 -0.43132,2.05892 -1.29395,3.34473c-0.86263,1.28581 -1.88802,2.39258 -3.07617,3.32031c-1.18815,0.92773 -2.22168,1.3916 -3.10059,1.3916c-0.61849,0 -1.33464,-0.1709 -2.14844,-0.5127c-0.8138,-0.3418 -1.48112,-0.72428 -2.00195,-1.14746l-0.97656,-5.12695c-1.17187,0.42318 -2.53906,1.14746 -4.10156,2.17285c-1.5625,1.02539 -2.84831,1.99382 -3.85742,2.90527l0,28.41797l12.89063,2.7832l-0.78125,3.61328l-31.5918,0l0.78125,-4.00391l6.88477,-2.88086l0,-30.85937l-7.22656,-4.00391z" data-paper-data="{&quot;elementType&quot;:&quot;letter&quot;,&quot;baseline&quot;:47.4609375,&quot;baselineProportion&quot;:1,&quot;fontSize&quot;:100}"></path><path transform="translate(-0.8,0)" d="M116.99219,78.17383c0,-4.45964 0.97656,-8.66699 2.92969,-12.62207c1.95313,-3.95508 4.6875,-7.13704 8.20313,-9.5459c3.51563,-2.40885 7.48698,-3.61328 11.91406,-3.61328c4.29688,0 8.1543,0.83822 11.57227,2.51465c3.41797,1.67643 6.13607,4.23991 8.1543,7.69043c2.01823,3.45052 3.02734,7.7474 3.02734,12.89063c0,4.45964 -0.99284,8.66699 -2.97852,12.62207c-1.98568,3.95508 -4.72005,7.12891 -8.20312,9.52148c-3.48307,2.39258 -7.34049,3.58887 -11.57227,3.58887c-4.39453,0 -8.3252,-0.83008 -11.79199,-2.49023c-3.4668,-1.66016 -6.20931,-4.20736 -8.22754,-7.6416c-2.01823,-3.43424 -3.02734,-7.73926 -3.02734,-12.91504 M142.96875,94.48242c1.26953,0 2.44141,-0.1709 3.51563,-0.5127c1.07422,-0.3418 1.92057,-0.85449 2.53906,-1.53809c0.68359,-0.84635 1.2207,-2.35189 1.61133,-4.5166c0.39063,-2.16471 0.58594,-4.27246 0.58594,-6.32324c0,-4.52474 -0.63477,-8.48796 -1.9043,-11.88965c-1.26953,-3.40169 -3.01921,-6.014 -5.24902,-7.83691c-2.22982,-1.82292 -4.74447,-2.73437 -7.54395,-2.73437c-2.66927,0 -4.60612,0.66732 -5.81055,2.00195c-0.61849,0.8138 -1.13118,2.30306 -1.53809,4.46777c-0.4069,2.16471 -0.61035,4.33757 -0.61035,6.51855c0,4.03646 0.54525,7.7474 1.63574,11.13281c1.09049,3.38542 2.72624,6.10352 4.90723,8.1543c2.18099,2.05078 4.80143,3.07617 7.86133,3.07617z" data-paper-data="{&quot;elementType&quot;:&quot;letter&quot;,&quot;baseline&quot;:47.607421875,&quot;baselineProportion&quot;:0.975,&quot;fontSize&quot;:100}"></path><path transform="translate(-1.2,0)" d="M166.99219,57.66602l0.87891,-4.05273l18.4082,0l0,27.14844c0,5.95703 1.1556,9.92839 3.4668,11.91406c0.39063,0.32552 0.78125,0.55339 1.17188,0.68359c0.39063,0.13021 0.84635,0.19531 1.36719,0.19531c1.82292,0 3.8737,-0.18717 6.15234,-0.56152c2.27865,-0.37435 4.18294,-0.85449 5.71289,-1.44043l0,-29.98047l-7.76367,-3.85742l0.78125,-4.10156l18.75,0l0,36.86523c0.7487,1.26953 2.01823,2.34375 3.80859,3.22266c1.79036,0.87891 3.35286,1.44857 4.6875,1.70898l-0.68359,2.92969c-1.33464,0.65104 -3.19824,1.29395 -5.59082,1.92871c-2.39258,0.63477 -4.59798,0.95215 -6.61621,0.95215c-0.42318,-1.07422 -1.20443,-2.47396 -2.34375,-4.19922c-1.13932,-1.72526 -2.29492,-2.94596 -3.4668,-3.66211c-2.05078,2.21354 -4.58171,4.07715 -7.59277,5.59082c-3.01107,1.51367 -6.06283,2.27051 -9.15527,2.27051c-4.32943,0 -7.82878,-1.35091 -10.49805,-4.05273c-2.66927,-2.70182 -4.00391,-7.16146 -4.00391,-13.37891l0,-22.2168l-7.4707,-3.90625z" data-paper-data="{&quot;elementType&quot;:&quot;letter&quot;,&quot;baseline&quot;:46.38671875,&quot;baselineProportion&quot;:0.9743589743589743,&quot;fontSize&quot;:100}"></path><path transform="translate(-1.6,0)" d="M258.69141,119.62891l-0.73242,3.56445l-31.29883,0l0.73242,-4.00391l6.78711,-2.88086l0,-54.00391l-7.17773,-4.10156l0.43945,-2.29492l15.2832,-2.7832l2.49023,6.54297c3.09245,-2.21354 5.91634,-3.97135 8.47168,-5.27344c2.55534,-1.30208 5.16764,-1.95312 7.83691,-1.95312c3.41797,0 6.37207,0.91146 8.8623,2.73438c2.49023,1.82292 4.39453,4.45964 5.71289,7.91016c1.31836,3.45052 1.97754,7.55208 1.97754,12.30469c0,4.45964 -0.87891,8.68327 -2.63672,12.6709c-1.75781,3.98763 -4.15039,7.15332 -7.17773,9.49707c-1.46484,1.13932 -3.07617,2.03451 -4.83398,2.68555c-1.75781,0.65104 -3.58073,0.97656 -5.46875,0.97656c-2.47396,0 -4.76888,-0.41504 -6.88477,-1.24512c-2.11589,-0.83008 -3.80859,-2.09147 -5.07812,-3.78418l0,20.60547l12.69531,2.83203 M245.89844,62.64648c0.0651,0.71615 0.09766,1.85547 0.09766,3.41797l0,23.7793c1.5625,1.39974 3.49121,2.40072 5.78613,3.00293c2.29492,0.60221 4.61426,0.90332 6.95801,0.90332c1.17188,0 2.12402,-0.09766 2.85645,-0.29297c0.73242,-0.19531 1.31022,-0.56966 1.7334,-1.12305c0.8138,-0.84635 1.52995,-2.46582 2.14844,-4.8584c0.61849,-2.39258 0.92773,-5.00488 0.92773,-7.83691c0,-3.80859 -0.52083,-7.2347 -1.5625,-10.27832c-1.04167,-3.04362 -2.49023,-5.52572 -4.3457,-7.44629c-0.55339,-0.61849 -1.11491,-1.04167 -1.68457,-1.26953c-0.56966,-0.22786 -1.21257,-0.3418 -1.92871,-0.3418c-1.26953,0 -3.03548,0.236 -5.29785,0.70801c-2.26237,0.47201 -4.15853,1.01725 -5.68848,1.63574z" data-paper-data="{&quot;elementType&quot;:&quot;letter&quot;,&quot;baseline&quot;:47.55859375,&quot;baselineProportion&quot;:0.6721877156659766,&quot;fontSize&quot;:100}"></path></g></g></g></g><g transform="translate(-571.26269,-101.51536) scale(1.75303,1.75303)" data-paper-data="{&quot;elementType&quot;:&quot;emblem&quot;}" fill="#ffffff" stroke-width="1"><g data-paper-data="{&quot;baselineProportion&quot;:0.9759284731774416,&quot;fontSize&quot;:100,&quot;baseline&quot;:69.287109375,&quot;elementType&quot;:&quot;word&quot;}"><path d="M23.04688,73.82813c0,3.8737 0.75684,7.33236 2.27051,10.37598c1.51367,3.04362 3.67025,5.42806 6.46973,7.15332c2.79948,1.72526 6.07096,2.58789 9.81445,2.58789c2.01823,0 3.85742,-0.29297 5.51758,-0.87891c1.66016,-0.58594 3.0599,-1.46484 4.19922,-2.63672c2.89714,-2.92969 4.3457,-7.50326 4.3457,-13.7207l0,-36.96289l-9.61914,-3.32031l0.83008,-4.00391l25.43945,0l-0.78125,4.15039l-7.4707,3.27148l0,36.03516c0,5.40365 -1.06608,10.03418 -3.19824,13.8916c-2.13216,3.85742 -5.2653,6.81152 -9.39941,8.8623c-4.13411,2.05078 -9.14714,3.07617 -15.03906,3.07617c-8.59375,0 -15.05534,-2.15658 -19.38477,-6.46973c-4.32943,-4.31315 -6.49414,-10.3597 -6.49414,-18.13965l0,-37.45117l-8.34961,-3.27148l0.83008,-3.95508l30.41992,0l-1.07422,4.98047l-9.32617,2.7832l0,33.64258z" data-paper-data="{&quot;elementType&quot;:&quot;letter&quot;,&quot;baseline&quot;:67.578125,&quot;baselineProportion&quot;:0.9753347427766033,&quot;fontSize&quot;:100}"></path><path transform="translate(-0.4,0)" d="M111.18164,71.5332l0.78125,-4.05273l31.64063,0l-0.73242,4.39453l-5.9082,3.4668l-0.04883,14.35547c-1.5625,2.3112 -3.64583,4.37826 -6.25,6.20117c-2.60417,1.82292 -5.55013,3.24707 -8.83789,4.27246c-3.28776,1.02539 -6.67318,1.53809 -10.15625,1.53809c-5.40365,0 -9.96908,-0.61035 -13.69629,-1.83105c-3.72721,-1.2207 -7.2998,-3.39355 -10.71777,-6.51855c-2.92969,-2.76693 -5.18392,-6.33138 -6.7627,-10.69336c-1.57878,-4.36198 -2.36816,-9.09831 -2.36816,-14.20898c0,-6.05469 1.05794,-11.80013 3.17383,-17.23633c2.11589,-5.4362 5.48503,-10.02604 10.10742,-13.76953c2.66927,-2.18099 5.85124,-3.84928 9.5459,-5.00488c3.69466,-1.1556 7.5765,-1.7334 11.64551,-1.7334c2.21354,0 4.50033,0.12207 6.86035,0.36621c2.36003,0.24414 4.53288,0.59408 6.51855,1.0498l6.98242,-0.68359l2.00195,18.06641l-5.51758,1.02539l-4.10156,-9.27734c-1.6276,-1.13932 -3.82487,-2.05078 -6.5918,-2.73437c-2.76693,-0.68359 -5.41992,-1.02539 -7.95898,-1.02539c-2.63672,0 -5.11882,0.26855 -7.44629,0.80566c-2.32747,0.53711 -4.01204,1.27767 -5.05371,2.22168c-2.14844,1.98568 -3.82487,5.08626 -5.0293,9.30176c-1.20443,4.21549 -1.80664,9.56217 -1.80664,16.04004c0,4.55729 0.61849,8.82975 1.85547,12.81738c1.23698,3.98763 3.07617,7.15332 5.51758,9.49707c2.24609,2.24609 4.61426,3.79232 7.10449,4.63867c2.49023,0.84635 5.15137,1.26953 7.9834,1.26953c1.79036,0 3.72721,-0.21159 5.81055,-0.63477c2.08333,-0.42318 3.67839,-1.02539 4.78516,-1.80664l0,-16.69922l-13.33008,-3.41797z" data-paper-data="{&quot;elementType&quot;:&quot;letter&quot;,&quot;baseline&quot;:69.287109375,&quot;baselineProportion&quot;:0.9759284731774416,&quot;fontSize&quot;:100}"></path></g></g></g></svg>